/* XPM */
static char *herbe2_100[] = {
/* columns rows colors chars-per-pixel */
"100 100 82 1 ",
"  c #18540B",
". c #1D5C0E",
"X c #1E5D10",
"o c #205F0D",
"O c #215E11",
"+ c #1F610E",
"@ c #1F6010",
"# c #21650F",
"$ c #246B0F",
"% c #286F0F",
"& c #28740F",
"* c #236412",
"= c #296717",
"- c #266A13",
"; c #296D15",
": c #2A6619",
"> c #2C6D19",
", c #306E1C",
"< c #277012",
"1 c #2C7315",
"2 c #2F7915",
"3 c #2E7319",
"4 c #2F7918",
"5 c #307717",
"6 c #317C16",
"7 c #31751B",
"8 c #347C1B",
"9 c #387E1F",
"0 c #357521",
"q c #387523",
"w c #377B20",
"e c #3A7D22",
"r c #358216",
"t c #388717",
"y c #378816",
"u c #398A16",
"i c #36821A",
"p c #39841D",
"a c #3D8B1D",
"s c #3D9117",
"d c #3F901B",
"f c #3C8422",
"g c #3E8A21",
"h c #3F9020",
"j c #408E1E",
"k c #42931E",
"l c #46991D",
"z c #489D1F",
"x c #4BA11E",
"c c #418625",
"v c #428D23",
"b c #488F27",
"n c #418528",
"m c #458D29",
"M c #488E2A",
"N c #459323",
"B c #489626",
"V c #479922",
"C c #4A9B25",
"Z c #479228",
"A c #4A942A",
"S c #479828",
"D c #4D9B2A",
"F c #519E2D",
"G c #4E9630",
"H c #509630",
"J c #519C31",
"K c #4EA125",
"L c #4FA129",
"P c #50A426",
"I c #51A824",
"U c #52A32C",
"Y c #58A72F",
"T c #56A92C",
"R c #59AC2E",
"E c #56B027",
"W c #5BB12E",
"Q c #56A431",
"! c #57A830",
"~ c #5AAC31",
"^ c #5EB232",
"/ c #60B136",
/* pixels */
"7--9*ifZDA9iVF887Niaa;Nr;k77;1afcf;;8;<gfFAc8vDm75vipN<fa<ai33-a8gn3<38*fwDDA5vBF>6pj9v87N16d33#i8fA",
"5vpp;-8N8;$;;N81pp;mWc7pvNs21pppw8gfp4=3Nf3--3im-8a18~S0igvNr<rpfeewhpr;-gc7--;5C-5985PTe3gvNu16aiff",
".1aNm8fDmk&#t6jBau13at=fTFDr;;-8f--rVmg8CAkr+6ypNNa11pa33UYDd<-;1f3*2NZv3NDNu#3tpvVjr38a8-CTDC5=;-ef",
"jN8>pV<8fVkaB7jj<22;63>2Npn7p8*eg4Si0-D21fjVtV8pk2&6;;4=1Naf0fp;>A2Ng8*Ny1ffDuka8N8163-8>>tvfe9p7*Z8",
"pfw-mPt-1pDCAFl68pN3agf8885;ia8prrf8>8UN<3rNLNDCp8rN88Nfa>p7>8pr4prfw7-DV2<8aPBADs8raf7Npv3p557tt7pr",
"177aDYC1-6rap866tvLg8NNZpvFYarvfp843fSPU8;26apfr28gCC8gNBpmS~NrpNrp33fmUTg<;6pap862gvP89NNfmcTDt8Zia",
"-8CCCv<yaaNkWp#5NfNL1cLSP93VmfgvN91kDCS66aaNNID@&acpT8eKDCv<gAgggmg;aCCCi1ajvZlT<;6B8LN3BFBC38DvfgcC",
"f188p18NNKarl8*aLCdLf8hhVp;77gAAcZ868883gNChrdZ@6KKNCZ3avAk;23wSJgSe3r8p18SBVtaV;;NUVVD7aaVN8178ZAmV",
"3pppN1>pyrat28plpVVh>afa3mtCSf3MN1wifN8=9arugr4ikvaVN3ipN<cgkFp8fA8wwpgv-7aruat1ralpVVi3ag2pvtFvp7Za",
"mciCfA9-2pe783lKgmgpfr<;7Qp8f8f!NfZfjbvv-1ir3i1aIVaNp8f<<;Dv8p8pSU8ZfpAfZ1;6p7w38xKgNa8f11-gF88prm!g",
"sCgj588MgefgNmaLJ41hN8r2>BNigfNg42Cgjp,9fN9ffgZgCQf;aNa8t-vDgramhi1VSfv>p8ZpffgSgNYZ<rZZ8t38DN6gfNf<",
"Na>v798Dc<<gS8;v^g1DA=rK85LaVg<**3K=v5p5AM7$fNg=6RS3NU7;Ck=AalN1-@#L<fr88cAf*8hZ><LU8iJg-dV>cCaC8-*#",
"9i;mZ3arwffgpfq1rfa8q7aDpf5pg;i1p4c$cZ98a8fpfafw3pph8878Ckp88Z381r8f>8mc3N8fwfgpf52ivp803NNpf3N8783a",
";igNN881giaDm-ea8ip<3p8668;8fr>8f<8amS8r1pcpBD37g84p1;fi6647<ap;qf13fvCg822mpmUw>cf7t2-8a4r48<8f8>p8",
":pZ8p7aa3irfF2igZ8ap1App11-t8uweA78Vfp88d28i8Df2gZ8fh>mgi8;-8i6pemc-Nv8p3Ny3prZS1angig3wZii-><a1aefA",
"7BVpNpNdvgmrZp3MU48M1wjNa18agp3>nnfDpvvcNkgmafN2iTp4g83NaN61akt8:eM9CkpC8VaacgrS68PN4fg>ggNr;pdar>7Z",
"CUBND8Zp6<caDe5klf3DtjVDfgDNdLr1fgQVVAmpN6<9jmZ;gVg3BNiVVNtSZjCk38vFDVgD8N823vaD;tkk79DiVVArZDgNV81f",
"vvaZAag3;<C98p;86pf26VzVgANSDUgipvZpNNvf8;;kj5v-888f61jINmZBACYvt8cZavNSpa>-iN3g5386cp;rKVNmBZCPAp8a",
"o9*6;pga633gfg8Z3Nm$55kt13gg3rr13 8-312jpi31f9Z8Z8rD;5;uar>9v66881.-6-8;aga;3wfm9pv3F8<38dp<8gr8ri1;",
"95,f3MM<28fgffar68a1-56fmf1;**38r88;g7fH828eapftur3N1=588Ap7<$*;p6p8;9p7Af<6wfafpar5ar-;88Mgr;-*=86a",
"V8BN8m7-81-paNVay86.8988UV1-8Ngh1Zpclfpco38-ragCaa1i@>p78DK8-1kav5pvfCk7N=<8-2aaBNa68-*f88gTa-3aNap3",
"56Ba>9t51g8g8pP72vf7bAf6Dg8gg884>31NN57pr;p8pf1Up2pm8rUfrgD4pm888577pC83pa<8frg1BZ56Zp3Fff8P8rN88873",
"8iDvmZjkpDwCpkUg<f6B^m9pgfaNNf3ZZ88CkvZvkrFevktTZ38igRU7mpmrSgA1fD67vBvZcsakmfV8PD65frU~fgiM8NgA88Sg",
"pkB7v8jjNP7ga3BDtptZjtakr1g~NZ8fCpaC98j8CaT9pV1fPatfgvaykp3i!Dcg8CgaCc3Z3CaUN7V85PZrpaNgrda48DQgZ3BN",
"=pg-AfM30383Nrfi1NjNc3ka83mkf4<4g;7v3fZff;883ga8N$kvNM8tsa>cmv383a5>N83Swm-e11fv9v1yNjMf2ka;emZ86;rj",
"=c37A~8-fO-;78pXpNtvD32Z8755g3;w7*f83p^v-8>X<;4p-;VaiJ8;vg30;p8;87-7e38TD1>fX<;887*kjrSm;im87;8f3376",
"ff-5rP3;7vppf-jravmpa1jD;e:8gi<gSfc3>4Lp-,fapg>paraZiv1tC8103ig;iBZc8-5NS-<wapg75kpampp85Nk;w,8v11ZD",
"7788fU<-NRCgw;lNjFZ5actppBFAp*+<N90888Dp#iYUvn*kNcCFp6vfpagUDg<.%pp0888mN=2DTNm>tkcNUv2NcppfFJk6.#6N",
"996u97r9gff18vraNlDmkC889DT6p38vp3r2yp2r8vpf87aryllDBNVv8ev~a87qpZ386ry84rggf85furklBAZVC5pe!C3w3pN8",
";-8a8t8f38f818NapPviDVvjaNN8>9fp+;;3a6i8i75g838aN2DS8CNvvtvP87wpg-*1-ar8rw8<g871iC5jFpvBNfpaCg77af8.",
"8pvNvAc3;8mgatC1fBp17N=cp8vp*pPUp8fmvNZA735gvv8Vt5Cc7;B67B8pg=3SYN8pcvNmD831tmvrkk;ZZ8;pj>A88N<-NQC8",
"NvFCUMCNCV<8vzk18,Z85jpjUMcg3vDp8ggZKDFZCNCr<flC58>vj=ppfDAgv8rUa8fjvPVQMDNSa18NKi639N39jpNFvvp1DNp9",
"4;NiAauTFPveNVmr8eNv*1m8gam81cU<ap;apZvrCTCD8ZNV869cN<-geaavp88!88a<8NgZrkWBU8cBVfr8fA8#8fidgf83DN3h",
"1*88;vZDFFe9ZNga18-ir7Zp2df1-*g7Ca#183fCZYFm5mNmv1832p1Za2uv5;.f7cV-;883AmQDH5cZAf887>p2fN8rN83.3feF",
"3p2i*-8Zc3356B3<8gwAT89prNtr8aafe7p8w<@4vZ8357fm#8v8f~gwp8ka62papn99p3iX<pBf;568D=1fawLD0fppNr48gpfg",
"X8aNg3pB8y-+8tgggp<8CN<cPDl2*1;7w=7tNm83Ncr<o3yapja13CN78DDCu;;;777-rdva>vB8r+;6apva21aCp>AUCk<-110e",
"8ppwfv6aACt6N1gV4r1-15=5LmAwr3-fB5p8g7N8pANN<N8rCp62;;3=;DAZf973>A6i8v7bp8BZl6aa8Ng2r<;2>-NDMv881*Af",
"vN7*gK215aLDDSk288p3p9w888,>ap-w68S8><Ty;1rSPDANr36a88g3t583-pt3>t5Bp>*Pk<18NKDDNd17y83m3p1r5=8ar*f4",
"57w8SUN;;raa8gayacD88BvgffZmppmgar678vPU7-2pkrfgr8gSa8NNv8vaAptaZta75eiFTp;<rdrpNaraZN8aNN8cpAatyZpu",
"$8cDLDry66aVTi$<vfCD;vDSNgvRNrafv51pDDDay68tNKN-;icvT38CDZNfUPppcpa<8ADFNrp68vCU<$<mpTg>NLBBpCYvfgpS",
"88Npp8<gNUkrKp*pKZaUgpNNP8#77vAAvb7avtp<8CLBrkS*6CSaLZ8NvLa#17fASgB7rvij31ASLpyT-;kFgSLihhSK;$78gSgS",
"8878a;8Nyyyay81NNVCN38aN6viNmpfZNre17p5>msraaai3aVNVV88aN6mrsNfcnZa9888a*fVryua876kNCVf1fhppctBpgfZS",
"ffjCZM3-4a88<2zKpNNp8p1<5HppN83Ga8cfBCB9-2ar73;kKkaVa3f18-Am8Zp3cD1feNSZg><ry80;rICpCN3f24-gG8vm8wQ4",
"kApa5fififegmgaLA46pgr233Uj88fDPgpCgin,jwpwfpgmgVLp1pga22-SAp2wSLB8CZ6Z=g8g8ffgNakUv1rpg28-pPg1rgFFf",
"avea;88Dg;4gS02D^g1UJ3rl77YiCc3-+<C8j887ZA7<gNf3a/A;CU81li;FakV3;*+C8ga38fF9;igN58YQ3pQN<sd;gCyC8;*@",
"vp-Nn7pmfw0gaf32Napfe>rUpepaN78-88Z#vfe5Bef3faf7<Npaff73KN8fpVr8<44S-8gc<Nff4iggw;yvapfw1NL8fpNp84>r",
";8rmA8p1gfmZg7e83fr-3ffprp36p737i388fD9i1pfvZN7wf38a;;piatp71g773r878fSn824cfZN87f87a2-8wfyrw<ff37rr",
"-pNcg1iy888NJ;fgg8pf3Zi2;;-86a8cZ37Zmv68u898pQ82vM8pg>gf65-;58p8eZw<aZgp2arw88JM;vcfia4wN84-3<p8tqnm",
",mC3gfgtrgN8Na2gP7pf=gmNr;<aat8>Zf8L8igfNrfNrmk2iY88v=8vgg1-tkrr>eA,Dv7N8Nu8NaiS66DZ3f81NgN2-8Nrp37A",
"ZUNCL8SNa4faSp2NCf3FffNVppSdaN8;fmFVVDgfVa88aaN1aKg1bB8NNkrvNaNp38nADVSD7Cap1gtD5iCN8eF8gNNrgCadh30f",
"FCNvSfm>=<Spgw<fip9t4CKDvCSmVYp8fALhNZZg8-;akrm;itiqj5jICZZDmNYv89BFNNvCfg-;8CrN57prwf6rIVSmDZNLDp8v",
"#61irppi1;effg<g;jm-4tka88mCaNv62X8<2frfi8-8c7N;f38D;36kkr8iDaNvp6O-63praip-3f8m88f3D8=8alp4wVNgmp8<",
"36-p-gB86p8mfgya8aa1;;8pp853++112;8-830Sf2pivfctNirN6;-88m842#+*8155318>Zc26ipafpja7Sr;>1rm883;++218",
"N7vkwAw-2>3tggNtp<rO588fFN;-3aaj8ZpfNfgm*33=igvvat<p*-888SK4*;paN8jj8NgeF:;8-8agvau18<*882cLa*;8ahpi",
"rrZN>88$<p1g8pS8rgi-cmf6Fk6ppf88>88vV83r1;p4ip5Dfrrg;3AfrNK88ap8r>7ipVp;p2$686a4Vv8rM3-AgprYa4apf84;",
">8CpfMkk6AiNpkYp;frNRm98NppfM89vg3<NgfnNk6NfjNrTm;8paUQ7giZ6ggg8pv7>aVpfmkpampN8PD11grC^qg8A4afM4igf",
"aZJfZfpkVY0Nt8CCtf8BKjtkp8v~NS>nCpkDmcB8VaWqjV7BKvipgDNpkp8i!SC87FaaDAfV8NaYm8C8cKvrfrDCtaar8PUNm>SN",
"3tf*vwZ88t88N8cZ&Njv83kk8-NCf88rZ86j-7ffv>vr>Np7D<aaNf1ykt=cCB7p4vf3j7-Z8S;cy3ga5Vt6Nkf82la35AD7p3gN",
"=fp7FUf;eO;;8pr*5VtmU3pvf7w8f8;32@wg8m~c35=#35ip<-CaaYp2vv7w5f8337=5v8w~Z8-w 3>pp8+jvtDA<vc8q,f82;38",
"8f#3iY<;ew368>a;avcfg-6D;7>1f8<mm8c;;1Tg-8e158,t88kv8v1<V6<7;8p-pMif8#3NC-3e81877i3kmpv8;aN-9>7v<4mN",
"w785fU1-iYVme;CNpCH8aeNjivcBg<*2Bv7588Uf*8DUmm*sVaNJptfmNppvBv8#<gAw588CC*3vTNZ=8CjjDm8afNgimMZf--rD",
"8c5t0p88NBa8epyaVCMpjA669DRt2=<fc;crr8wr3vNv8wfupkVAfpSp1fcWk6;=6m;ef6i8p5tNmp8narjCDm8lZ<peTL44*3g4",
"5#iu888f88e3;tujaCCBUNmajCC5weca-5;;ar88ff3f3<8pkaVFmUNZatZY588fv5>;*ay88if7e833iktkFZPDNatgUp0wggp=",
"18cjpZe5-8MgprC59Y9-8l7v8rB8OrmV1;8fapmc7<<Zna6Nj=Um;3kiev6vv#7vD6-59jafm73-gvg6aC-BF7-pN3NrpN;*gNg<",
"VmDPFFDfca88cVN1p7f78N2cDcfv<gQCpvBZUKHFvak68pNK665ef>Np9FmfN46UDvfNZFKFFZfkt6fgza188c3aj5DCfvp3DQNf",
"i1SpFctPPPt8NCv68fPv*1mrNNcp8BD<8a1vaAB6CIDV3mVV6rwSC-&afkNaf8fT83a88CgF6kYDP5fVC968MP5#icpNaf67Ug<f",
"<-fi8ZBYFFjeSNMa<4=818Zpyav2--N3VaXpp8vNDTDB7Zdmm17-85;vpium81XZ8fV-<fieBB~SF7nvNmr73<r<fmiyvp5.8g8K",
"57;8O5pmAe98fD838mfNS3gi1k8238afn97<8;=pgAve8gNZ-8mpgP8fa1ap341aigf77<8@9pDme8cvD=2fgfDg7g86j661pffM",
"-ava8-8Z51#*<ai8fi-fRZ>gCVk6;26f75eapp5;N91;#;8g3pt13TD58BCVy;22p777kap8=ac3%+-3N2ip4-CTf3mCVk&;28we",
"-2pvvatBDl2%s2gDpr3>22-8YFCf1;-8m;38BfmrkFla$trrDvr6;16><UUFc4>;>m8;4NfmpaDCl<8t6NVrr3<63=VYHB63>-gg",
"vB5*pD<37NCVDfkr<281f378p87,ai*wi8F8>-Y6;8pDkPfga<1r35p>7ri8>pt;:v1Cg3*Da<48VkLZak31r4<f=88i7,8t4@g1",
"8893ZPv-<yNZgSNrfgV7pNge98i98affa88w7pFC<;6aCtACtiaN98mvv5f8e8aafap88e1DK8;2tCggSj8ama7gma5c8p8iaggt",
";59AKUgr12pkC8<<apUC3mVCvvFWk6gpp825MFPCp124dNg<<8vNU4fVDgSZ^Dy8via15fDPPp632alh111vgTf7NCNZmTTs2v8d",
";6CNNp$aNCNaEp-6CgaU8gCZP6#9pvmZNf1kVjv12NKCaKD@3NZpUg8CZLg@3fpMvvN1aSvN8$NBDgs^;<aSpVSwVNAK;$ffmmNV",
"p717p18Daayua8-aDCVS88aNav6jpfZZZa817667Zkgapag*rDCVAg3aNaN6tfrAAvN9177t-cVadyua<;CDCNN3pdNgprp8ZZMC",
"8fgBSe>7rya8<8kKrVNa3gr83ZpjDr;Mp3ffNBv;;ryur41aKaaCN>g8p%mgaDf1eB39pNAZ7-6rypi<tCNiCV88pp<imtSN83A6",
"NZrN7Mf36pwifrdUZpi8fr<38!p888S!NgAptceN36ff8fwaKCarrip<1;DN888MUQpSmrB7A888fwffrNLa8p6g11=vF888cD!g",
"sZfk388Ag88aSgpD~91DS4yu;fUrNf88*1Cgv838gN83avmiN~m;NDa8s18Daav87>+Vgga<r8Sf3fgZfa!U1pLN2k65ZCrV867*",
"Zp-vw8iSc31hNe-pUg6Bm=rKiqAaNa2*;8S@v8f3Dgf-pNc><PmrgA7<KV1SaVa8-;1D;epf3mmf-ihm7;NCppAe#kK1cjkk93-1",
"388cA3a3ffmgpww16pa<78fNtp<if>83t1f3gAwi88fgvv8w828a<388Ntf31v3538281iZc7a2gfggfe818cr;78Njp83f8>82p",
";pmBm8r2fiiDA=fm9ip43gw4<0;2ig3fv,8vZB8r68f8mY37Nf8pi>fp15;31rp59m81fZZf866v8pYf>Ng8ip;8g84<0;rr87vf",
":jV>p8ga3fgwSy8gD7pf-Sgg2;-s8ti>Aw5D58pwN68N8Za8fF88v-nvgr1-ra8t,cm=Cg3g7Nr7mpfA2iAg8g38Zgg<;3h4a8qA",
"nCVNLiShNiftBa1NKw3D88NNa8aada33ccZBNCmpVdpfapN<pPa7Zv;NkNrphda8>emcSVVD8CkaivrS88DN8eA1ggVr8hadp<8n",
"FUSgSfZ4><ZaN93adf3CrlKDgZDmVUp3fVYBZNNgf;;fkjZ;pkp>NpjIVZgCmNPk58NUDSgCpZ;;2ZaS;rkaqpNiKCDpDNNCD68c",
"5i8vmpf4><mf8a-f1am-1kVdfgZDCCgrr,p5avai83-fg<g;978A5-azNpccDBFmtr388pNgpi4-8c3g7181Zp-rzNapgSSDAg6r",
"*8#8=thp687gfgyN3Nm<3;ap83i8*;13<#8-131Zgr88ffMrNppA11=8pt>8p--;8;-;1-8-dvr888gcaav2C81>5pa34p1;-8;<",
"c5pv8An;678affa6r1p*;86fAN;-;7igic88N8cA>223fafary;a;$688AV4-$38v6vp7cpwD7<83fpcfar<r8#165mBt-;;8prp",
"kiBk3p3*58;ppaDpyi8Xifp6YN16rN8a-ggcNf8p*;8;rfpDfa6a*<mwrAK816Nia>8vfCj3g-=8<2aiNZarg;OcetfTa<6avf8-",
";6Bp7cka1Nim8aY8<vfpLZf6Zf6am7p88>3Nj7evk1jfav6Tv;impNQqipA5pM8i893;pN8egk6rmiN5KS<1mag!eg6D5tcf4i88",
"ijFmAcpkNF0CtjPZ8f6CRNpaafNDZZ;MCipDZZZpkuYwvk8FBr8iaRLwNpjpUND7ePpfVDmBpkjKveC8VDg8g8UTfjpvfDADf3JN",
"8jc*f4NgvC59N3mD2aam81kk8=gQgf9pA9iN;7a9V8Dp1V48Urpavf2pkt=9UB9c8Ng8N8-v7D8Sv5vp,Lhrgaf66la;7CUeN3mZ",
"=pj7JZg;7O55ppp<1CaAF1kfp7fpf8;3p*8N8cUc83;;3pai8$VvjD8yjj,e8j71>i>>vp8Qff-7#58aif-pVaAZ&ka8qwa82-4p",
">c*3g~3-n>#175p*aNpfZ;<C377<g4>fp;c;;8~f#8q*<33f>7NgpA2;Ni;9-fe-pf3e8->PD;3f-;3788-Zv8Bf;8Z<8>8f<4fp",
"f8<7aL3<7BkZe-kktZA8a8NV3fqgf8-pCmw578Up-3mlgM=aNtjA9a8aCi8eegf-1ZCn537BB;1pCjZ>1VaaBvprpCk7eqgc1$gL",
"7c8y8m4;VYZ9e8kuZPZ8am88pD~N4@+2v1ei68cp=aYCff7sajDDi8B85cv^Fr-O&j57f68fv-6DFae8yjgVFc1Nf7pfQ~a3X-p8",
"8-6ap7rfp8e3>arkkZDDFNgrpDK4f0gN8711at86pf8p3;pralNDDUNNrimY69wfmp>6;ua81pa898;6tukkAFUBCrpfYa88igm3",
";1pt8g88-fcf86C88!p<gVrvtaN8*pfg+-18v8gfw13vfr3hv;UB;pZafpaNp*7pv1#<1jr9g87-gff2aC;ZU18vkfvydN1=pfi@",
"vmBDBDZ888faaal2fpf38V;MZejp<p!YagNmSCADw8prggaCr8cpr;B87Fppv57UYNtZmNDAFn8rrfgflg1gpf;gN-Df8m8;V~Lf",
"a8DkTmsCKK63NxN18wLf-rcpCBvp1BC10hrgVDDpVKPa;glC1r5AN-6gfVDcv1fU63fppDNQfNKDV;iNK881cD7<agaDmgi3Ua1e",
";;v9cak^FDNfNNmt408a-7cfjav91eU;hr+grmgdURAPwSkZp807N3;ffatmf2>U8ps-6gvcaC^BQfmNZgr87fr-ifpaggr>SN3V"
};
