/* XPM */
static char *wall100[] = {
/* columns rows colors chars-per-pixel */
"100 100 52 1 ",
"  c #262624",
". c #282725",
"X c #272825",
"o c #292926",
"O c #2D2D2A",
"+ c #302F2D",
"@ c #31312E",
"# c #353532",
"$ c #383734",
"% c #373834",
"& c #3A3936",
"* c #3D3D39",
"= c #403F3B",
"- c #3F403C",
"; c #42413E",
": c #454541",
"> c #484743",
", c #4B4945",
"< c #4E4C48",
"1 c #514F4A",
"2 c #54514D",
"3 c #575550",
"4 c #595652",
"5 c #5C5A55",
"6 c #5F5D58",
"7 c #615E59",
"8 c #65625D",
"9 c #68655F",
"0 c #696661",
"q c #6D6A64",
"w c #706D67",
"e c #726E68",
"r c #75726C",
"t c #79756F",
"y c #7B7771",
"u c #7D7973",
"i c #817D76",
"p c #837F79",
"a c #85807A",
"s c #89857E",
"d c #8B8780",
"f c #8E8A82",
"g c #918E86",
"h c #938F88",
"j c #939087",
"k c #96938A",
"l c #99968D",
"z c #9B988F",
"x c #9E9B92",
"c c #A19E95",
"v c #A3A097",
"b c #A7A49B",
/* pixels */
"   O&,ivbbbbbl&#47O$7gcbbbbbbbcp>   iskkklcbbbbbblkka&$g<Owpafkklsxzs<%o4scbbbbbbbxi#-::::*%#OO  .  ",
":;:;2fvbbbbbbba+# #wgcbbbbbbbbbcf7  7pkkkkkzcbbbkkkgio5bc,Owaaafzslsi:-O6slvbbbbbbbxtO-:*#3qerq93:@O",
";>*5kbbbbbbbbbx4#:2shbbbbbbbbbbbcgqO$pghkkkkkkzkkkha0 ybbg#O9aaapssisO:%1ssxbbbbbbbbl7O:Ouscbbbvccs-",
":*8kbbbbbbbbbblaO=5pglbbbbbbbbbbbcs8 0pgkkkkkkkkkgat#odlkf,#+1ipspis9o::&ssllbbbbbbbbs#*@slxbbbbbcs@",
"*qlbbbbbbbbbbxkf$=*pfkzcbbbbbbbbbcd7+$ppfkkkkkkhsp0++=asy1 &=# #---#oO%*&rsszlbbbbbbbc0@%eslzvvxks1%",
"rlbbbbbbbbbbxkktO:+qpkkzbbbbbbbbxkp#=$7ppsgkkgdpr:o&:$*$Oo;22,*oo@*--5i3#1isxssxbbbbbbs@*3sllxsxs8@&",
"lbbbbbbbbbbxkka#=:=#pskkkbbbbbckkd,$::Orpsaaspe, +&;>= ;&0kccczgy2@-&sbs&Oyssxllklxvbbb5#-sksxsseo@y",
"vbbbbbbbbclkja-%$ $&1pdkkkccclkkf7O:#  #yapu7* @1edkxk=*%scbbbbbvzs#-zzyOo:psssxkkkkklkso&qsxss0O@rs",
"klllzzllkkkfa:+%00$++0pdkkkkkkkgeo=$0u+ O;$  >eglbbbbc5&,fbbbbbbbbz:Osy@...2iassklkkllss-&-sss7o@ysz",
"kkkkkkkklfaa:O#acbh<++rpshkkkhgy+#=ikcro*O *rfxbbbbbbb0@5gbbbbbbbbs-O%oO5-.o:isasskkxsss3@&4i2oOeszs",
"fffkggffsaa,X+avbbbz2 #ypshkkgi#o;sxbbz;*:#ihbbbbbbbbvqO0gbbbbbbbbso&&@yzsq+O-usissssssi#@:#@O@0siss",
"aaaaaaaaau:XOuvbbbbbk2 $ippapi* *dcbbbce#:;slbbbbbbbbc0 ehlbbbbbbc9o:%qvbbxa*o%rsisssir%o#-@:-:iisis",
"aaaaaaaau-OOqxbbbbbbbh> &ippi& *scbbbbbfO;2dkbbbbbbbbl7 ykklbbbbbz:O-5bbbbbbs<O#5ssis6@O5slr@%2ipspp",
"0ruuaaue&+%1lbbbbbbbbcs&#$ee#O$pbbbbbbbk:&5fkzbbbbbxkd1 ihkkklbbvso#&sbbbbbbbk2O%&07%o-scbbv3@Oo#:27",
"OOOoXXXX#;%fbbbbbbbbbbcyO*O +#tcbbbbbbbx4O8fkkxbclkkdp$Oiskkkkkks7o#tvbbbbbbbbs4O-OO@7zbbvxxr@::-#@@",
"%&##%-&;:#0lbbbbbbbbbbbk7O;*&9cbbbbbbbbv0 8fkkkkkkgsi1O#upskkkkks@O6sbbbbbbbbbbs,O:-5slsslsq#*%O oO@",
"kkha5O:::#skbbbbbbbbbbbbd&&:,kbbbbbbbbbvr 7fkkkkfsp7@O;#0aasgkkf6o#sxbbbbbbbbbbvs#&@issssw-o#:3qussx",
"bbbch2#>*1skxbbbbbbbbbbbh5+$pcbbbbbbbbbbi 4affsap7$+#$*;#eaapdduOo0sscbbbbbbbbbbx4#@wss9&oO5iksllbbb",
"bbbbxf#**1pkkbbbbbbbbbbbh5@:hcbbbbbbbbbbd :paay2@o@;24=O##<rppi;o-sxxxbbbbbbbbbbv0@-#<@O-%2pslsxscbb",
"bbbbbxrO=;pgkxbbbbbbbbbbg1#4hzbbbbbbbbbvs O22& O,efkxccg5Ooo#*+OOrsslslcbbbbbbbbx8@:#&q7%%1ssslxxxvb",
"bbbbbbl,&Oidkkcbbbbbbbbxf;+ekkcbbbbbbbbxs -###7slcbbbbbbbk4o$&#=-islzxcsbbbbbbbxs7@#7lvv<-Oepssslxlv",
"xbbbbbvaOO8pgklbbbbbbbckd##skkcbbbbbbbckaX:@4flcbbbbbbbbbbxy+#:%9asssszzscbbbbxkx3oqxbbbsO:#8pssssll",
"lkxvbbbx6 =askklbbbbbblks =dkkkbbbbbbvkkuo%,aklbbbbbbbbbbbbxr =Oysssxlsxxxxvcllks:*sbbbbz--:#-epsssl",
"fkkkxvbvg# rpgkkkcbbclkke 2fkkkcbbbbckkkr++rfkkbbbbbbbbbbbbxao&@qsssslzxlskkszkkl%3cbbbbv4%-#@ :rsss",
"asfklkkxxe :aakkkkkkkkkg5 8fkkkkbbbxkkkk8@*aflkvbbbbbbbbbbblr **-sassszskkklslszsO0xbbbbb2%@qe1.o:ri",
"raasfkkkkk>Xradkkkkkkkkg: egkkkklbzkkkkk4O4phkkxbbbbbbbbbbbk6o:>+0aisscskkkxxzxxeoycbbbbk%#5xvxi%@O:",
"o&8iaafkkksO:aafkkkkkkhs+opskkkkkkkkkkkf>oeihkklbbbbbbbbbbvf*###-%ipsasskklsllss1 scbbbcu@-svbbcsO-&",
":%O#4uiaffk8 qaafgkkkkgw #ppdhkkkkkkkkka#oiaflkkbbbbbbbbbbxu #2,oo:paaassklxssss#@slbbvs3@8vbbbvsO-:",
"O#%%+O:0aass%#iappasasp,O#psppgkkkkkkjayX@aadkkkvbbbbbbbbbk4O<xxwo 1ispssssspps7O&sllkks@#sbbbbc8o:O",
"r04:#OOXO<0r;X<aaaapppyO# epsppsfkkjfau:oOyaakkkxbbbbbbbbxd++fvbbeo.2pppssiisi7O#:slkksqO3cbbbzs##&q",
"bbvvxf0<#    @O4ppir03+o:# ,epppaaaai6@o-#4aifkklxbbbbbbbx0 0xbbbbq.o-tppii8:OoO--sssss-@illscs0o-sx",
"bbbbvbbxku2#+-:O      +*=;;#o&5eaaq1OX#-&&#aaakkklvbbbbbxf&#kbbbbbc5O@o@%O O@%-::-ssssq <sszssi@#ssv",
"bbbbbbbbbbbs8+%:-&%,7e65>*O@@OooXX XX+-25%+9aaskkkkllllkkwX9vbbbbbbz-@:&&&%&-::::#0isu%.6sisis2 rskx",
"bbbbbbbbbbbbsy.::#8ssssbsssi5;O++#&*8fxvvp+%aaaskkkkkklkf;@kbbbbbbbxy.-:-3yw<@&::&ooo. .20q85,o;skkx",
"bbbbbbbbbbbbbso;O0vssbbbbbbbsssr@&;6xbbbbv<o7aaafkkkllklrX7vbbbbbbbxs#--,kbbbs:#::-O.. .o@OO@%@wllkx",
"bbbbbbbbbbbbvu.%1ssvsbbbbbbbbbbsa#-2xbbbbbaoOtaaaasffffs;OsvbbbbbbbzuO:&scbbbbs:--:wuye5:O@*::*skkkk",
"bbbbbbbbbbbbs2@+ussssbbbbbbbbbbbbu+:fvbbbbz###taaaaaaaaq 1kcbbbbbbbs5&&ubbbbbbx<*&sxbbbbcs6O-&8lkkkk",
"bbbbbbbbbbbbsOo,sisvsbbbbbbbbbbbbx:Oakkkkkk<%&o,raaaaia&oykzbbbbbbxs#&6xbbbbbbx-#0cbbbbbbbs<-#uskkkk",
"sbbbbbbbbbbs4.@2sssssbbbbbbbbbbbbc0X8jkkksw+--#O &5raa2o;fklbbbbbbk6@-sbbbbbbbko%sbbbbbbbbs2**pslkkk",
"zzbbbbbbbbbs++*:ssssbsbbbbbbbbbbbl0 *afar,o-&8uw<O   o &6gllvbbbbzs@#yxbbbbbbbw.2xbbbbbbbbv3@2pskkkk",
"zssvbbbbbbs4o:;@ssiasvsbbbbbbbbbxr+#%<4-o%:#wkvvvs5@%%-#tkkkzbbbzs5O3scbbbbbbs<orcbbbbbbbbc2O0pisklk",
"zxzxzxvbbbs#%*%+qaaasssvbbbbbbbs9o@:;@o  @:Oikcbbbcs,-;+yfkkkcvlkuO#uzxbbbbvxsO#sxbbbbbbbbz< ypssskx",
"ssxslxsxss:@&8,O:saassvssssssss2X*;##<9t7O+&7flbbbbbl8@%,aglkkkks:#&skkcbbclsqo:skbbbbbbbbk:Oiississ",
"xzzllslls0.%ics<.raassscbsbsss:#&@;rflcvxto##akzbbbbbk7@+3afkkls8.:&skkkxxkks-O7kkzbbbbbvzs-#isiisss",
"slslskkku+@uvbbsO;aasaasssss3o@%2ikxbbbbbc9o@3sllxcbbgtO;+2asjsuO&:#ilkkskss0.#yzkkzbbvzksi@@iisaaaa",
"ssllxlks:oqcbbbb8 0ssaaaaaq#.+3slcbbbbbbbbk-oorfkkkkka;-,;+;iaa-#-:#0ssssssr@##skkkzkkkssst  qsiaaaa",
"sisslss3O5sbbbbbs&@uaaaa0-.O<asbbbbbbbbbbbcq @#iasssy--%+OO++;- O oOO:11:%o.@:-ssskssssiq1@#O.:eaasi",
"isisss5o<sbbbbbbv0.:re4#. -issbbbbbbbbbbbbvso-@-aay3OO#4ys8X--X-8yy&*&%%&&-::::isisr02&o @*::%..#1qa",
"%:233-o@uxbbbbbbbs@@o. @@7assbbbbbbbbbbbbbxs@-;++#oO<tgzxvxqo;-kbbx#&%:1<::*#%#--#OoOo O@OooO@*&+O.o",
"OOOooO%3sbbbbbbbbc;-----tasssvbbbbbbbbbbblky -;;@#5slbbbbbbx5O-all7O2sbbbccss7O--#@@&,58ruisuw#&::-#",
"tq5,%-%isbbbbbbvvs5o;;@6sssssbbbbbbbbbbckks;o;@-9gzvbbbbbbbbk-O-53O5kbbbbbbbvs:&O1esskxcxcvvcx8O::&0",
"bbvxuO:ssbbbbvxlss;-;;@2sssscsvbbbbbbbxkzsq %-qsxbbbbbbbbbbbxuX--&2svbbbbbbbbx3@,sxvbbbbbbbbbvto:-ts",
"bbbbv<#isxbbxlsxsqO;;;;oraassssvxxxcxlkkka#O;skxbbbbbbbbbbbbbk6O::skbbbbbbbbbb8O5zcbbbbbbbbbbby ::sb",
"bbbbbyoessllkklsro;-oO+-#uasscvslkslkkkks<o#akkbbbbbbbbbbbbbbxs@%:skxbbbbbbbbbqoqszbbbbbbbbbbveo-7sb",
"xccvck@1islklssuO-@2ys0O@;assvsvlkxlkkls8 @9slkbbbbbbbbbbbbbbvs<#@skkbbbbbbbbcq.ykkcbbbbbbbbbc7O&tsc",
"sxsxsk:Oiskxsst@O-usxbx9oo;sssvsskkklzsrO-#askkxbbbbbbbbbbbbbcs,%@9skkvbbbbbbce.ukklbbbbbbbbbx<@%pzs",
"ssssss<#4sssiqOo4sbbbbbb5O 8aslsxlsxlss-%-<aslklbbbbbbbbbbbbbca-**:ssxkbbbbbbc0 ikkkxbbbbbbbbs-%%uss",
"6452:%o-#ysi5oO0zbbbbbbbx; Orsssxsllss;+;o9asklkvbbbbbbbbbbbbzu -:Oyslklbbbbvs9 ikkkkzcvbbbbvso:%%<2",
"ooooOO*:-&6&OOezbbbbbbbbbs- -yaasslss2O;- yaszlklbbbbbbbbbbbbs8X&@*<sllklxbbls6 ysslkkkksxlzs8@::-#o",
"90q083:O@%o%%0zbbbbbbbbbbbs@ ;assasa4o;;- aaaskkkzbbbbbbbbbbza-o<s-#islkxsslzs2oesskkkkkzxsss#%#O-27",
"xxxxczss-O::,svbbbbbbbbbbbcuO ;saaa5.-;;- eaaskzkkkkzzzzzzzkgrX%szi%1sssslsxss-O5pspsslkzsss-O#0sszx",
"bbbbbbbviO&&7sbbbbbbbbbbbbxs0O@5aa3 --@+@ +9aaaskkkkkkkkkkkks,o9xss7Oyspssssi5o&o6ipsssssss2oO8ssbbb",
"bbbbbbbbl2o%9sxbbbbbbbbbbsscs3OO;; +-o;;%   ;taaskkklkkkkkkjrX-szlxs@-ippt9<Oo%-#O#5yssspi,o&&ssvbbb",
"bbbbbbbbvioO7sscbbbbbbbvsxszsa-@O -;Oebbxa2+ o;eaasssjkkkkka-+5kxszs7%OOo   @:274-o  &189-o-O9ssbbbb",
"bbbbbbbbbz,.2pssvbbbvzssxzkkksuO---Orcbbbbvl0#OO&5ipppspspp5o*9ssllss%:-#O2yssxvvxs8-.oo. &-@iskbbbb",
"bbbbbbbbbvw.-psszscsxsxzslkkkks3o-Owxbbbbbbbvx8@#Oo-7ypppp8o&-#5sszss7&:@ssxxbbbbbbvxi3##-:#2sslbbbb",
"bbbbbbbbbbs@Oisszxzsxzszxkkkksaqoo8svbbbbbbbbbvi%&-#O #-:-O-:--@O,0isr@-<ssxbbbbbbbbbbcs5o-Orsllbbbb",
"bbbbbbbbbbs1.0issszxszcclkkkksa7o:sxxbbbbbbbbbbl8O:-%@Ooo@&:@185:Oo@-:O-3svbbbbbbbbbbbbcs &@ssskvbbb",
"bbbbbbbbbbzw.:isssssssssxszssaa: 9sslvbbbbbbbbbx7%%4wisssu:#Oislczu1##*-1ssbbbbbbbbbbbbbso#<issllbbb",
"bbbbbbbbbbssoorpssaassaasssasarO%1psszvbbbbbbbbl1#2sxcbbbbs#@sllbbbbs0#-:szcbbbbbbbbbbbbso@8siskklbb",
"bbbbbbbbbxss*o-iiisssaaur0741,O+:#yssclvbbbbbbbs@#scbbbbbbx,OilzcbbbbvuO#islvbbbbbbbbbbbsOOuissxkklb",
"bbbbbbbbbzcs1+O%,,:--#o.oooO+#&;:--ssslxlzxxcxl0o1lbbbbbbbv0oesxxbbbbbcqo3sslvbbbbbbbbbbso#isssllzsk",
"xxbbbbbblkks4@:%Oooo.ooOO&,,,1<- @#5sisskkkkkzs&oucbbbbbbbbso8sskvbbbbbx1Oesllvbbbbbbbbvso-psspszlsl",
"zlxvbbbxkkss-%-&12599wysssszsvxsr#OOwpsskkkkksq.-scbbbbbbbbl%2slkzbbbbbbs-@usslxccxxscssi <ippslxsxl",
"lxsxxvxklssr %:spsssscvvbbbbbbbbxs-O@yppskzzss&O0slvbbbbbbbz<:sskkkzcbbbbio&islxsxcxcssse 2spissxlcs",
"lsllkkkklss-O&issxvbbbbbbbbbbbbbbcs: #ipissss0o#ilscbbbbbbck7Opiskkkxslxcs1o:ssscsscssis5 4pssppsszx",
"sxkkkkkkss9 Otsbbbbbbbbbbbbbbbbbbbxs&o-uiisiu#*:sssxbbbbvxkkt esssszlsslssyo@:issssasy7:oO,aisisisss",
"slklkklsss@ 6psbbbbbbbbbbbbbbbbbbbxsuOO*isis<@-4sxlllbbxkkkkso:isissssssssuo&O&5082:@ .@-%Oysisisiss",
"ssslkxksi< %psslcbbbbbbbbbbbbbbbcllls4o##ysq.:*qpsxlkkkkkkkks@o:40qqtq841*o.-:@Oooo@%-::::O+8aisisaa",
"ssssssss9o 0psxlslcbbbbbbbbbbbvzxslsu#o:&@1O%:#ypssxkkkkkkksi-#&@OOoOo o#&-::::&&452,&@@&-;#.%8uaaaa",
"aaaaaisrOo%sisslxxzsxxxcbbbclkkkzkst#.&:%@O#::@rsiissssssssss:@:-&*&%%%---:%@:-&szccxlsi0,&&-#oO:9ia",
"29rias0OoO6psssslszxslkkslklkkkksi8OO*2zzi2&::@@18eysssisiue4O#%:qussslxzzls&*Orsxbbbbbbvxse:#-%#Oo&",
"o...OOoO-O:yisissssxcxlxxkkxlsssu, #:%scbbcs7&-O  . .OO@@O oO%:@yskkbbbbbbbbsOOiszxbbbbbbbbvs<O:&&&%",
"ir05<:----Oo:7yspsissssslkkssss9@o*:-1sxbbbbci&--%###&%2rr7:%::#0sklxbbbbbbbc9o7sxsxbbbbbbbbb0oO7sss",
"xbbbvxssr1&-#Oo%<7rppppssssssr- %%o.*6skzzzssu%@::::::#icbvx4%:*:ssksvbbbbbbbx-*sszzcbbbbbbbv0o#szss",
"sxsxvbbbvs&-:::&#O O&150yiiq: O@&55@O4siisy7:O#%##@#*:Oizbbv5%::O0sslzxvbbbbbbroysszslccvcccl3O-ssxz",
"sssxszxscs2%:@-#&:::65:Oooooo@1yscxs%.*:-@.@OO%*-*#  @@eszcs%@o#-Oqssslxlvcvbbs:<sssxzllsxsxs%%%ssss",
"iississssi-%%qss:#:5sbv1:-#-8sxvbbbciO&&&--%0skxxxss8O.5skk8%ru,O&O%7issssxssxxroyissxsxlssi<o:#,7wr",
"oooOO@@OOoO*:sbbx6@*ssi&%&rsvbbbbbbbc8O::-#izbbbvbbbs2O*ist&slbs4o--OO2rsisslsls%,aasssssy1O#-##*%@%",
"spe7:&%&--:#svbbbcq@-6&#5sslbbbbbbbbbs#-:Oesbbbbbbbbxq.-2q%uxbbbs5O:#2&o&7iassss2owaaiiq:O#:#1usssss",
"bbbbvzi2O-*2sbbbbbcq@---pssxbbbbbbbbbz<&#5sbbbbbbbbbxy :%O9kbbbbbl<##iss:OO-9uaa8o#092%o%::-:slvbbbb",
"bbbbbbbs-#Oilvbbbbbl0@:-pszzbbbbbbbbcs:@:sxbbbbbbbbbxi ::,svbbbbbbs-#qsbcs,%-@%-%O#OOO&-o*:@yscbbbbb",
"bbbbbbbs-#*sklvbbbbbs6#%qsslcbbbbbbckuo@uzbbbbbbbbbbxs :%ikbbbbbbbbiO:slvbct&%:-*-*<qsss*%-,ssvbbbbb",
"bbbbbbbso-:ssklvbbbbxs-%%ssslsxvcbbks2.8sbbbbbbbbbbbxi -4skxbbbbbbbc8Osskbbbs5#:-6sxvbbc:##tslcbbbbb",
"bbbbbvs7O:orslklvbbbcs3#*&usslsxkkzsuO:sxbbbbbbbbbbbxyo%isslbbbbbbbblO5sscxcbs:%,szcbbbv,#:ssllvbbbb",
"bbbbvlp@%:&#iskkkcbbsi@%:*#qssslkkks,OisbbbbbbbbbbbbxrO,ssxlxbbbbbbbc-Oisssss2O-5slszvbv:oqssxsxvbbb",
"vbbbls1O::-%*islxzxcs,O:::-O-rssssseo5scbbbbbbbbbbbbseo7issxxvbbbbbbc,@1siy1O#::-essllls:Oiisszzscxc",
"lssls0o&:%1@O<ssszss6O:-%@#%#O:rpsu##isbbbbbbbbbbbbxs7o,ssllslbbbbbbc2%@-%o#&-&-:#-9issi#Oisaisszsxs",
"ssssrO%&<svs&o3ssssqO-%O:7rr4#o -3%o7ssvbbbbbbbbbbvls5%O0islkklbvccxk3%,&oo&-::&#O%#O:55Oo,0usspisss",
"ppseO@&0sbbbs&o5ise#%&7sxvbvcs5O#@%%ssxsxbbbbbbbbblzs<%%#esslxssslxsl2%,#5sslxcssy2#:&#O-&Oo.%:59wys"
};
